<?xml version="1.0" standalone="no"?>
<!DOCTYPE svg PUBLIC "-//W3C//DTD SVG 20010904//EN"
 "http://www.w3.org/TR/2001/REC-SVG-20010904/DTD/svg10.dtd">
<svg version="1.0" xmlns="http://www.w3.org/2000/svg"
 width="280.000000pt" height="280.000000pt" viewBox="0 0 280.000000 280.000000"
 preserveAspectRatio="xMidYMid meet">
<metadata>
Created by potrace 1.14, written by Peter Selinger 2001-2017
</metadata>
<g transform="translate(0.000000,280.000000) scale(0.100000,-0.100000)"
fill="#000000" stroke="none">
<path d="M1030 2414 c-125 -33 -263 -126 -371 -251 -54 -62 -126 -183 -144
-241 l-6 -22 1037 2 1038 3 67 250 c38 138 68 256 69 263 0 19 -1614 16 -1690
-4z"/>
<path d="M453 1558 c8 -141 24 -212 64 -277 31 -49 101 -103 161 -122 25 -8
166 -14 422 -18 379 -6 386 -6 422 -29 31 -19 38 -31 48 -77 20 -97 -7 -161
-84 -196 -38 -17 -79 -19 -658 -19 l-617 0 -16 -52 c-107 -374 -151 -534 -148
-540 2 -5 398 -8 879 -8 l875 0 97 36 c168 62 249 118 353 242 187 225 246
522 162 825 -13 49 -30 73 -106 158 -101 112 -139 137 -269 171 -81 22 -98 22
-837 25 l-754 4 6 -123z"/>
</g>
</svg>
